# xmcd CD database file
#
# Track frame offsets:
#	150
#	19435
#	42032
#	55625
#	76857
#	94037
#	113072
#	136367
#	151662
#	167545
#
# Disc length: 2514 seconds
#
# Revision: 0
# Processed by: cddbd v1.5.2PL0 Copyright (c) Steve Scherf et al.
# Submitted via: CDex 1.70beta2
#
DISCID=6a09d00a
DTITLE=Willie Rosario - Infinito
DYEAR=1973
DGENRE=Salsa
TTITLE0=Arrepentidos Pecadores
TTITLE1=Echame La Culpa A Mi
TTITLE2=Todo Y Nada
TTITLE3=Ajiaco Caliente
TTITLE4=Tumbao Revolución
TTITLE5=Juventud Siglo 20
TTITLE6=Soy Rumbero
TTITLE7=Lagrimas Y Tristeza
TTITLE8=Amigo De Que
TTITLE9=Last Tango In Paris
EXTD=YEAR: 1973
EXTT0=
EXTT1=
EXTT2=
EXTT3=
EXTT4=
EXTT5=
EXTT6=
EXTT7=
EXTT8=
EXTT9=
PLAYORDER=
